{"title":"Castle in the Sky (Tenku no shiro Rapyuta) 1986 BRrip 1080P x264","uid":9676461,"size":2688299611,"categoryP":"video","categoryS":"hd___movies","magnet":"?xt=urn:btih:393c7407ffb3ad3a28b66bd2139b8164c2992b2b&amp;dn=Castle+in+the+Sky+%28Tenku+no+shiro+Rapyuta%29+1986+BRrip+1080P+x264&amp;tr=udp%3A%2F%2Ftracker.openbittorrent.com%3A80&amp;tr=udp%3A%2F%2Fopen.demonii.com%3A1337&amp;tr=udp%3A%2F%2Ftracker.coppersurfer.tk%3A6969&amp;tr=udp%3A%2F%2Fexodus.desync.com%3A6969","seeders":8,"leechers":1,"uploader":"realOfek","files":4,"time":1393570982,"description":"Please leave feedback!\n\nDownload .txt first to check upload date AND signature are correct. Formatting may look weird in notepad, just copy/paste into different text editor like usual.\n\n[url=&quot;http://www.imdb.com/title/tt0092067/&quot;]http://www.imdb.com/title/tt0092067/[/url]\n\nSource: BDrip\n\nUsed 3 pass on very slow.  Optional English aac 5.1 included if you want to mux it in later on (mp4 only accepts 2 audio tracks and ppl hate mkv sometimes)\n\nSTUDIO GHIBLI FTW!!!\n\nGeneral\nFormat                                   : MPEG-4\nFormat profile                           : Base Media\nCodec ID                                 : isom\nFile size                                : 2.32 GiB\nDuration                                 : 2h 4mn\nOverall bit rate mode                    : Variable\nOverall bit rate                         : 2 664 Kbps\nEncoded date                             : UTC 2014-02-27 20:53:16\nTagged date                              : UTC 2014-02-27 20:53:16\n\nVideo\nID                                       : 1\nFormat                                   : AVC\nFormat/Info                              : Advanced Video Codec\nFormat profile                           : &lt;a class=&quot;__cf_email__&quot; href=&quot;/cdn-cgi/l/email-protection&quot; data-cfemail=&quot;5911303e3119156d7769&quot;&gt;[email&amp;#160;protected]&lt;/a&gt;&lt;script cf-hash='f9e31' type=&quot;text/javascript&quot;&gt;\n/* &lt;![CDATA[ */!function(){try{var t=&quot;currentScript&quot;in document?document.currentScript:function(){for(var t=document.getElementsByTagName(&quot;script&quot;),e=t.length;e--;)if(t[e].getAttribute(&quot;cf-hash&quot;))return t[e]}();if(t&amp;&amp;t.previousSibling){var e,r,n,i,c=t.previousSibling,a=c.getAttribute(&quot;data-cfemail&quot;);if(a){for(e=&quot;&quot;,r=parseInt(a.substr(0,2),16),n=2;a.length-n;n+=2)i=parseInt(a.substr(n,2),16)^r,e+=String.fromCharCode(i);e=document.createTextNode(e),c.parentNode.replaceChild(e,c)}}}catch(u){}}();/* ]]&gt; */&lt;/script&gt;\nFormat settings, CABAC                   : Yes\nFormat settings, ReFrames                : 4 frames\nCodec ID                                 : avc1\nCodec ID/Info                            : Advanced Video Coding\nDuration                                 : 2h 4mn\nBit rate                                 : 2 501 Kbps\nMaximum bit rate                         : 19.3 Mbps\nWidth                                    : 1 920 pixels\nHeight                                   : 1 024 pixels\nDisplay aspect ratio                     : 1.85:1\nFrame rate mode                          : Constant\nFrame rate                               : 23.976 fps\nColor space                              : YUV\nChroma subsampling                       : 4:2:0\nBit depth                                : 8 bits\nScan type                                : Progressive\nBits/(Pixel*Frame)                       : 0.053\nStream size                              : 2.18 GiB (94%)\nTitle                                    : Video\nWriting library                          : x264 core 133 r2334 a3ac64b\nEncoding settings                        : cabac=1 / ref=4 / deblock=1:1:1 / analyse=0x3:0x133 / me=umh / subme=10 / psy=1 / psy_rd=0.40:0.00 / mixed_ref=1 / me_range=24 / chroma_me=1 / trellis=2 / 8x8dct=1 / cqm=0 / deadzone=21,11 / fast_pskip=1 / chroma_qp_offset=-2 / threads=12 / lookahead_threads=1 / sliced_threads=0 / nr=0 / decimate=1 / interlaced=0 / bluray_compat=0 / constrained_intra=0 / bframes=3 / b_pyramid=2 / b_adapt=2 / b_bias=0 / direct=3 / weightb=1 / open_gop=0 / weightp=2 / keyint=250 / keyint_min=23 / scenecut=40 / intra_refresh=0 / rc_lookahead=60 / rc=2pass / mbtree=1 / bitrate=2501 / ratetol=1.0 / qcomp=0.60 / qpmin=0 / qpmax=69 / qpstep=4 / cplxblur=20.0 / qblur=0.5 / ip_ratio=1.40 / aq=1:0.60\nEncoded date                             : UTC 2014-02-27 20:53:16\nTagged date                              : UTC 2014-02-27 20:54:06\n\nAudio #1\nID                                       : 2\nFormat                                   : AAC\nFormat/Info                              : Advanced Audio Codec\nFormat profile                           : HE-AAC / LC\nCodec ID                                 : 40\nDuration                                 : 2h 4mn\nBit rate mode                            : Variable\nBit rate                                 : 81.1 Kbps\nMaximum bit rate                         : 109 Kbps\nChannel(s)                               : 2 channels\nChannel positions                        : Front: L R\nSampling rate                            : 48.0 KHz / 24.0 KHz\nCompression mode                         : Lossy\nStream size                              : 72.2 MiB (3%)\nLanguage                                 : English\nEncoded date                             : UTC 2014-02-27 20:54:04\nTagged date                              : UTC 2014-02-27 20:54:06\n\nAudio #2\nID                                       : 3\nFormat                                   : AAC\nFormat/Info                              : Advanced Audio Codec\nFormat profile                           : HE-AAC / LC\nCodec ID                                 : 40\nDuration                                 : 2h 4mn\nBit rate mode                            : Variable\nBit rate                                 : 77.4 Kbps\nMaximum bit rate                         : 103 Kbps\nChannel(s)                               : 2 channels\nChannel positions                        : Front: L R\nSampling rate                            : 48.0 KHz / 24.0 KHz\nCompression mode                         : Lossy\nStream size                              : 69.0 MiB (3%)\nLanguage                                 : Japanese\nEncoded date                             : UTC 2014-02-27 20:54:05\nTagged date                              : UTC 2014-02-27 20:54:06\n\nAudio #3    (separate file)\nID                                       : 4\nFormat                                   : AAC\nFormat/Info                              : Advanced Audio Codec\nFormat profile                           : HE-AAC / LC\nCodec ID                                 : 40\nDuration                                 : 2h 4mn\nBit rate mode                            : Variable\nBit rate                                 : 213 Kbps\nMaximum bit rate                         : 268 Kbps\nChannel(s)                               : 6 channels\nChannel positions                        : Front: L C R, Side: L R, LFE\nSampling rate                            : 48.0 KHz / 24.0 KHz\nCompression mode                         : Lossy\nStream size                              : 190 MiB (100%)\nWriting library                          : Nero AAC codec 1.5.4.0\nEncoding settings                        : -q 0.30\nEncoded date                             : UTC 2014-02-27 07:43:03\nTagged date                              : UTC 2014-02-27 07:53:20\n\n\n\n\n\n\nEnjoy!","torrent":{"xt":"urn:btih:393c7407ffb3ad3a28b66bd2139b8164c2992b2b","amp;dn":"Castle+in+the+Sky+%28Tenku+no+shiro+Rapyuta%29+1986+BRrip+1080P+x264","amp;tr":["udp%3A%2F%2Ftracker.openbittorrent.com%3A80","udp%3A%2F%2Fopen.demonii.com%3A1337","udp%3A%2F%2Ftracker.coppersurfer.tk%3A6969","udp%3A%2F%2Fexodus.desync.com%3A6969"],"infoHash":"393c7407ffb3ad3a28b66bd2139b8164c2992b2b","infoHashBuffer":{"type":"Buffer","data":[57,60,116,7,255,179,173,58,40,182,107,210,19,155,129,100,194,153,43,43]},"announce":[],"urlList":[]}}